<svg width="4789" height="1356" xmlns="http://www.w3.org/2000/svg" xmlns:xlink="http://www.w3.org/1999/xlink" xml:space="preserve" overflow="hidden"><g transform="matrix(1 0 0 1 0 -559)"><g><text fill="#6688C4" fill-opacity="1" font-family="Arial,Arial_MSFontService,sans-serif" font-style="normal" font-variant="normal" font-weight="700" font-stretch="normal" font-size="504" text-anchor="start" direction="ltr" writing-mode="lr-tb" unicode-bidi="normal" text-decoration="none" transform="matrix(1 0 0 1 1501.22 1281)">A Dog’s Life</text><text fill="#6688C4" fill-opacity="1" font-family="Arial,Arial_MSFontService,sans-serif" font-style="normal" font-variant="normal" font-weight="400" font-stretch="normal" font-size="261" text-anchor="start" direction="ltr" writing-mode="lr-tb" unicode-bidi="normal" text-decoration="none" transform="matrix(1 0 0 1 1492.74 1615)">GROOMING SERVICES</text><path d="M501.266 1789.06 525.197 1895.97 474.627 1882.97 415.196 1861.21 403.925 1810.86ZM675.5 562C1048.57 562 1351 864.509 1351 1237.67 1351 1587.51 1085.19 1875.26 744.566 1909.86L682.337 1913 633.655 1695.51C675.714 1609.4 690.132 1491.15 690.132 1491.15L732.988 1225.94 952.003 1176.89C1032.31 1158.9 1083.3 1078.47 1065.32 998.142L899.191 963.775C860.654 882.941 768.071 834.659 675.598 855.368L541.755 885.342 549.856 1047.12C550.692 1062.27 554.506 1079.31 565.075 1092.28 579.713 1112.01 604.883 1121.71 627.875 1121.67 653.299 1121.09 676 1108.34 688.676 1085.05 695.685 1070.7 699.717 1054.46 698.881 1039.31L695.212 942.997C694.921 930.281 704.909 917.82 720.055 916.984 732.768 916.693 745.226 926.684 746.061 941.833L751.62 1035.17C754.38 1070.33 741.995 1106.34 717.151 1132.35 700.953 1151.31 677.707 1161.63 653.372 1167.08 646.072 1168.72 638.771 1170.35 630.926 1169.55 592.789 1170.43 559.228 1157.49 532.677 1130.21 512.083 1106.7 500.678 1078.58 499.007 1048.28L492.032 914.37 363.64 1139.95C338.288 1186.52 290.199 1222.85 236.662 1234.84L2.50459 1287.28 0 1237.67C0 864.509 302.432 562 675.5 562Z" fill="#6688C4" fill-rule="evenodd" fill-opacity="1"/></g></g></svg>