<?xml version="1.0" encoding="UTF-8" standalone="no"?>
<!-- Generator: Adobe Illustrator 17.1.0, SVG Export Plug-In . SVG Version: 6.00 Build 0)  -->

<svg
   xmlns:dc="http://purl.org/dc/elements/1.1/"
   xmlns:cc="http://creativecommons.org/ns#"
   xmlns:rdf="http://www.w3.org/1999/02/22-rdf-syntax-ns#"
   xmlns:svg="http://www.w3.org/2000/svg"
   xmlns="http://www.w3.org/2000/svg"
   xmlns:sodipodi="http://sodipodi.sourceforge.net/DTD/sodipodi-0.dtd"
   xmlns:inkscape="http://www.inkscape.org/namespaces/inkscape"
   version="1.1"
   x="0px"
   y="0px"
   viewBox="0 0 341.79998 124"
   enable-background="new 0 0 347.1 123.9"
   xml:space="preserve"
   id="svg2"
   inkscape:version="0.91 r13725"
   sodipodi:docname="353.svg"
   width="341.79999"
   height="124"><metadata
     id="metadata42"><rdf:RDF><cc:Work
         rdf:about=""><dc:format>image/svg+xml</dc:format><dc:type
           rdf:resource="http://purl.org/dc/dcmitype/StillImage" /><dc:title></dc:title></cc:Work></rdf:RDF></metadata><defs
     id="defs40" /><sodipodi:namedview
     pagecolor="#ffffff"
     bordercolor="#666666"
     borderopacity="1"
     objecttolerance="10"
     gridtolerance="10"
     guidetolerance="10"
     inkscape:pageopacity="0"
     inkscape:pageshadow="2"
     inkscape:window-width="1680"
     inkscape:window-height="931"
     id="namedview38"
     showgrid="false"
     inkscape:zoom="0.89311436"
     inkscape:cx="173.55"
     inkscape:cy="61.950001"
     inkscape:window-x="0"
     inkscape:window-y="1"
     inkscape:window-maximized="1"
     inkscape:current-layer="g8" /><g
     id="Layer_1"
     transform="translate(0,0.09999847)" /><g
     id="Layer_2"><g
       id="g6"><g
         id="g8"><g
           id="g10"><path
             d="m 308,93.3 c 1,-4.7 4.8,-7.1 9.5,-7.1 4.3,0 8.3,2.8 9,7.1 l -18.5,0 z m 33.3,7.6 c 0,-15.4 -9,-24.5 -24.7,-24.5 -5.8,0 -10.9,0.9 -14.9,3.6 l -0.2,0.4 -5.4,10.2 -1.3,2.5 c 5.6,2.9 8.4,7.6 8.4,14.1 0,4.5 -1.3,8.2 -3.5,11.1 4.6,3.7 10.9,5.7 18,5.7 5.2,0 10.3,-1.2 14.4,-3.8 4.1,-2.5 7.3,-6.4 8.5,-11.7 l -15.4,0 c -1.8,3 -4.2,4.1 -7.6,4.1 -6.6,0 -10,-3.5 -10,-10 l 33.6,0 0,-1.7 z"
             id="path12"
             inkscape:connector-curvature="0"
             style="fill:#ea1d76" /><path
             d="m 35.7,42.5 c -2.4,-1.8 -5.2,-3.2 -8.2,-3.2 -6.1,0 -11,4.7 -11,11 0,6.5 4.7,11.1 11.2,11.1 2.8,0 5.9,-1.1 8,-3.1 l 0,13.5 C 32.2,73.6 28.3,74.3 24.5,74.3 11.1,74.4 0,64.4 0,50.8 0,36.3 11.1,26.3 25.2,26.3 c 3.7,0 7.4,0.9 10.5,2.6 l 0,13.6 z"
             id="path14"
             inkscape:connector-curvature="0"
             style="fill:#ea1d76" /><path
             d="m 80.9,50.3 c 0,-5.8 1.6,-11.2 4.5,-15.5 -2.6,-5.3 -7.5,-8.4 -14.8,-8.4 -6.2,0 -10.7,2.3 -14.4,7.2 L 56,33.6 56,0 40,0 l 0,72.9 16,0 0,-23.1 c 0,-5.3 2,-10.7 8.3,-10.7 6.4,0 7.2,5.4 7.2,10.7 l 0,23.1 16,0 0,-4.2 C 83.4,63.9 80.9,57.4 80.9,50.3"
             id="path16"
             inkscape:connector-curvature="0"
             style="fill:#ea1d76" /><path
             d="m 100.7,50.4 c 0,5.7 3.8,10.1 10.3,10.1 6.5,0 10.3,-4.4 10.3,-10.1 0,-5.5 -3.8,-10.2 -10.3,-10.2 -6.6,0 -10.3,4.7 -10.3,10.2 m 36,22.5 -16,0 0,-5 -0.2,0 c -2.8,4.5 -8.3,6.5 -13.6,6.5 -13.3,0 -22.7,-11.1 -22.7,-24.1 0,-12.9 9.2,-24 22.6,-24 5.2,0 10.6,1.9 14,5.9 l 0,-4.4 16,0 0,45.1 z"
             id="path18"
             inkscape:connector-curvature="0"
             style="fill:#ea1d76" /><path
             d="m 156.9,35.2 0.2,0 c 3.1,-5.5 8.3,-8 14.6,-8 l 3.1,0 0,15.4 c -2.2,-1.2 -4.3,-1.5 -6.8,-1.5 -8.9,0 -11.1,5.9 -11.1,13.6 l 0,18.2 -16,0 0,-45 16,0 0,7.3 z"
             id="path20"
             inkscape:connector-curvature="0"
             style="fill:#ea1d76" /><path
             d="m 187.3,50.4 c 0,-7.1 2.5,-13.2 6.9,-17.9 l 0,-32.5 -16,0 0,72.9 16,0 0,-4.6 C 190,63.9 187.3,57.9 187.3,50.4"
             id="path22"
             inkscape:connector-curvature="0"
             style="fill:#ea1d76" /><polygon
             points="245.1,41 245.1,72.9 261.1,72.9 261.1,41 272.4,41 272.4,72.9 288.3,72.9 288.3,41 294,41 294,27.8 288.3,27.8 288.3,0 272.4,0 272.4,27.8 261.1,27.8 261.1,0 245.1,0 245.1,27.8 240,27.8 240,41 "
             id="polygon24"
             style="fill:#ea1d76" /><path
             d="m 156.9,84.7 0.2,0 c 3.1,-5.5 8.3,-8 14.6,-8 l 3.1,0 0,15.4 c -2.2,-1.2 -4.3,-1.5 -6.8,-1.5 -8.9,0 -11.1,5.9 -11.1,13.6 l 0,19.6 -16,0 0,-46.5 16,0 0,7.4 z"
             id="path26"
             inkscape:connector-curvature="0"
             style="fill:#ea1d76" /><path
             d="m 308,43.8 c 1,-4.6 4.8,-7.1 9.5,-7.1 4.3,0 8.3,2.8 9,7.1 l -18.5,0 z m 33.3,7.6 c 0,-15.4 -9,-25 -24.7,-25 -8.2,0 -15,2.8 -19.4,7.9 l 0,10.1 -4.9,0 c -0.4,1.9 -0.6,3.9 -0.6,6.1 0,15.5 11.1,23.4 26.1,23.4 5.2,0 10.3,-0.7 14.4,-3.2 4.1,-2.5 7.3,-6.4 8.5,-11.7 l -15.4,0 c -1.8,3 -4.2,4.1 -7.6,4.1 -6.6,0 -10,-3.5 -10,-10 l 33.6,0 0,-1.7 z m -123.5,9.1 c -6.5,0 -10.3,-4.4 -10.3,-10.1 0,-5.5 3.8,-10.2 10.3,-10.2 6.5,0 10.3,4.7 10.3,10.2 -0.1,5.7 -3.8,10.1 -10.3,10.1 m 18.9,-28 c -5,-4 -11.7,-6.2 -18.9,-6.2 -14.5,0 -27.1,8.7 -27.1,24.1 0,15.4 12.7,24 27.1,24 10.2,0 19.5,-4.3 24.1,-12.2 l 0,-17.9 -5.2,0 0,-11.8 z"
             id="path28"
             inkscape:connector-curvature="0"
             style="fill:#ea1d76" /><path
             d="m 210.3,101.4 c 0,5.7 -1.4,9.7 -8,9.7 -6.6,0 -8,-4 -8,-9.7 l 0,-24.1 -16,0 0,27.1 c 0,14.8 10.4,19.4 24,19.4 13.5,0 24,-4.6 24,-19.4 l 0,-3.4 c -1.6,-2.2 -2.7,-5.1 -2.7,-9.2 0,-3.8 1,-7 2.7,-9.7 l 0,-4.8 -16,0 0,24.1 z m 76.5,-7.6 c -2.2,-0.4 -7.2,-0.9 -7.2,-4 0,-2.3 3.2,-3.1 5,-3.1 2.7,0 6.2,0.9 8.6,2.2 l 5.4,-10.2 c -4.7,-2.1 -9.8,-2.9 -14.9,-2.9 -9.8,0 -19.8,4.9 -19.8,16 0,8.1 5,10.5 10,11.9 5,1.3 10,1.5 10,5 0,2.5 -3,3.4 -5,3.4 -4,0 -9.4,-2.3 -12.6,-4.6 l -0.1,-0.1 c -0.1,5 -1.7,8.9 -4.4,11.9 5.2,2.9 11,4.5 16.9,4.5 10.5,0 21.3,-4.9 21.3,-16.8 -0.1,-8.2 -5.7,-11.8 -13.2,-13.2"
             id="path30"
             inkscape:connector-curvature="0"
             style="fill:#ea1d76" /><path
             d="m 249.8,93.8 c -2.2,-0.4 -7.2,-0.9 -7.2,-4 0,-2.3 3.2,-3.1 5,-3.1 2.7,0 6.1,0.9 8.6,2.2 l 5.4,-10.2 c -4.7,-2.1 -9.7,-2.9 -14.8,-2.9 -6.6,0 -13.2,2.2 -16.9,7 l 0,0 c -0.1,0.1 -0.1,0.1 -0.1,0.2 0,0 -0.1,0.1 -0.1,0.1 l 0,0 c -1.7,2.3 -2.7,5.2 -2.7,8.7 0,3.7 1.1,6.2 2.7,8 l 0,0 c 0,0 0,0 0,0 0.1,0.1 0.3,0.3 0.3,0.3 1.9,1.9 4.4,2.8 7,3.5 5,1.3 10,1.5 10,5 0,2.5 -3,3.4 -5,3.4 -3.9,0 -9.2,-2.2 -12.5,-4.5 -0.4,4.1 -1.7,8.3 -4.7,11.7 5.2,2.9 11,4.5 17,4.5 10.4,0 21.2,-4.9 21.2,-16.8 -0.1,-8.1 -5.8,-11.7 -13.2,-13.1"
             id="path32"
             inkscape:connector-curvature="0"
             style="fill:#ea1d76" /></g></g></g></g></svg>