<?xml version="1.0" encoding="UTF-8"?>
<svg id="Layer_2" data-name="Layer 2" xmlns="http://www.w3.org/2000/svg" viewBox="0 0 235.11 35.29">
  <defs>
    <style>
      .cls-1 {
        letter-spacing: -.09em;
      }

      .cls-2, .cls-3, .cls-4 {
        fill: none;
        stroke-linecap: round;
        stroke-linejoin: round;
        stroke-width: 2px;
      }

      .cls-2, .cls-5 {
        stroke: #c27053;
      }

      .cls-3 {
        stroke: #f2c86e;
      }

      .cls-6 {
        font-size: 8.94px;
      }

      .cls-6, .cls-5 {
        font-family: ArialRoundedMTBold, 'Arial Rounded MT Bold';
      }

      .cls-4 {
        stroke: #5d8e75;
      }

      .cls-7 {
        letter-spacing: -.05em;
      }

      .cls-8 {
        letter-spacing: -.05em;
      }

      .cls-5 {
        fill: #c27053;
        font-size: 14.24px;
        stroke-miterlimit: 10;
        stroke-width: .25px;
      }

      .cls-9 {
        letter-spacing: -.04em;
      }
    </style>
  </defs>
  <g id="Layer_4" data-name="Layer 4">
    <g id="Layer_1-2" data-name="Layer 1">
      <path class="cls-3" d="m7.33,16.99c-1.06-1.49-1.69-3.32-1.69-5.29,0-5.04,4.09-9.13,9.13-9.13,1.99,0,3.84.64,5.34,1.73"/>
      <path class="cls-2" d="m28.94,34.29H2.35c-.91,0-1.56-.89-1.28-1.76,0,0,3.68-11.59,3.71-11.7.68-2.26,1.65-3.84,3.57-3.84h6.9"/>
      <polyline class="cls-2" points="8.53 26.6 12.37 20.83 14.84 19.29 15.65 15.01 19.07 15.01"/>
      <polyline class="cls-2" points="21.02 23.72 17.17 25.64 16.21 27.56 13.33 28.52 13.33 34.29"/>
      <text class="cls-5" transform="translate(56.76 18.96)"><tspan x="0" y="0">SONORAN DESE</tspan><tspan class="cls-7" x="116.75" y="0">R</tspan><tspan x="126.29" y="0">T C</tspan><tspan class="cls-8" x="149.28" y="0">L</tspan><tspan x="157.17" y="0">UB</tspan></text>
      <text class="cls-6" transform="translate(56.74 28.78)"><tspan class="cls-1" x="0" y="0">A</tspan><tspan x="5.64" y="0">T SC</tspan><tspan class="cls-9" x="26.04" y="0">O</tspan><tspan x="32.77" y="0">TTS</tspan><tspan class="cls-9" x="49.9" y="0">D</tspan><tspan x="56.18" y="0">ALE COMMUNITY COLLEGE</tspan></text>
    </g>
    <g id="Layer_3" data-name="Layer 3">
      <path class="cls-4" d="m38.08,34.28s.04-10.58,1.34-12.28,2.41-6.97,2.6-10.33c.19-3.36-.83-6.92-5.23-7.26-4.4-.33-5.85,7.7-6.02,8.87-.17,1.17-.39,6.03,0,9.77.39,3.74,1.67,11.22,1.67,11.22h5.64Z"/>
      <path class="cls-4" d="m30.92,24.44s-3.98,1.23-6.06-.31-3.31-6.17-3.25-8.53.11-5.8,2.34-6.66,2.89,0,2.89,0c0,0,1.45,3.59.86,6.66s-.97,7.14,3.01,6.97"/>
      <path class="cls-4" d="m41.3,18.35s3.78,2.11,3.52-2.12-.68-8.97.02-10.06c.42-.66,2.01-.02,3.2.6.78.4,1.4.79,1.4.79,0,0,2.77,2.82,2.52,5.04-.25,2.22-1.99,6.37-3.6,7.39s-2.53,1.58-6.12.34l-1.5-.55"/>
      <line class="cls-4" x1="48.03" y1="6.77" x2="50.36" y2="5.7"/>
      <line class="cls-4" x1="48.07" y1="3.71" x2="47.29" y2="6.23"/>
      <line class="cls-4" x1="45.04" y1="2.86" x2="45.78" y2="5.7"/>
      <line class="cls-4" x1="27.55" y1="6.31" x2="25.98" y2="8.57"/>
      <line class="cls-4" x1="22.61" y1="6.33" x2="24.51" y2="8.76"/>
      <path class="cls-4" d="m39.12,1.75l-2.34,2.67s-.6,7.69-1.22,9.96-1.15,11.21-.96,12.38.64,7.13.64,7.13"/>
      <line class="cls-4" x1="35.99" y1="1" x2="36.78" y2="4.42"/>
      <line class="cls-4" x1="32.91" y1="2.68" x2="36.13" y2="4.41"/>
      <path class="cls-4" d="m48.91,6.82s.17,5.96-.83,8.34-2.11,5.98-6.32,4.19"/>
      <line class="cls-4" x1="24.78" y1="4.36" x2="25.17" y2="8.62"/>
    </g>
  </g>
</svg>